<mxfile host="app.diagrams.net" modified="2020-11-02T19:51:23.265Z" agent="5.0 (Windows NT 10.0; Win64; x64) AppleWebKit/537.36 (KHTML, like Gecko) Chrome/86.0.4240.111 Safari/537.36 OPR/72.0.3815.186" etag="6FLBM9h-JRFUwCR7ERjk" version="13.8.8" type="github">
  <diagram id="cCxTltGgbdT63aZ0QY4t" name="Page-1">
    <mxGraphModel dx="1780" dy="770" grid="1" gridSize="10" guides="1" tooltips="1" connect="1" arrows="1" fold="1" page="1" pageScale="1" pageWidth="827" pageHeight="1169" math="0" shadow="0">
      <root>
        <mxCell id="0" />
        <mxCell id="1" parent="0" />
        <mxCell id="t6vhpmNbI5Wrl3wtF_EN-1" value="Inicio" style="ellipse;whiteSpace=wrap;html=1;aspect=fixed;" vertex="1" parent="1">
          <mxGeometry x="370" width="80" height="80" as="geometry" />
        </mxCell>
        <mxCell id="t6vhpmNbI5Wrl3wtF_EN-2" value="" style="endArrow=classic;html=1;exitX=0.5;exitY=1;exitDx=0;exitDy=0;entryX=0.5;entryY=0;entryDx=0;entryDy=0;" edge="1" parent="1" source="t6vhpmNbI5Wrl3wtF_EN-1" target="t6vhpmNbI5Wrl3wtF_EN-3">
          <mxGeometry width="50" height="50" relative="1" as="geometry">
            <mxPoint x="590" y="230" as="sourcePoint" />
            <mxPoint x="410" y="110" as="targetPoint" />
          </mxGeometry>
        </mxCell>
        <mxCell id="t6vhpmNbI5Wrl3wtF_EN-3" value="Cant=0.0&lt;br&gt;tp=0.0" style="rounded=0;whiteSpace=wrap;html=1;" vertex="1" parent="1">
          <mxGeometry x="350" y="110" width="120" height="60" as="geometry" />
        </mxCell>
        <mxCell id="t6vhpmNbI5Wrl3wtF_EN-4" value="" style="endArrow=classic;html=1;exitX=0.5;exitY=1;exitDx=0;exitDy=0;" edge="1" parent="1" source="t6vhpmNbI5Wrl3wtF_EN-3" target="t6vhpmNbI5Wrl3wtF_EN-6">
          <mxGeometry width="50" height="50" relative="1" as="geometry">
            <mxPoint x="590" y="210" as="sourcePoint" />
            <mxPoint x="640" y="160" as="targetPoint" />
          </mxGeometry>
        </mxCell>
        <mxCell id="t6vhpmNbI5Wrl3wtF_EN-5" style="edgeStyle=orthogonalEdgeStyle;rounded=0;orthogonalLoop=1;jettySize=auto;html=1;entryX=0.5;entryY=0;entryDx=0;entryDy=0;" edge="1" parent="1" source="t6vhpmNbI5Wrl3wtF_EN-6" target="t6vhpmNbI5Wrl3wtF_EN-8">
          <mxGeometry relative="1" as="geometry">
            <mxPoint x="410" y="310" as="targetPoint" />
          </mxGeometry>
        </mxCell>
        <mxCell id="t6vhpmNbI5Wrl3wtF_EN-6" value="&quot;Programa que calcula una cierta cantidad de productos&quot;" style="ellipse;whiteSpace=wrap;html=1;" vertex="1" parent="1">
          <mxGeometry x="330" y="200" width="160" height="80" as="geometry" />
        </mxCell>
        <mxCell id="t6vhpmNbI5Wrl3wtF_EN-7" style="edgeStyle=orthogonalEdgeStyle;rounded=0;orthogonalLoop=1;jettySize=auto;html=1;" edge="1" parent="1" source="t6vhpmNbI5Wrl3wtF_EN-8" target="t6vhpmNbI5Wrl3wtF_EN-10">
          <mxGeometry relative="1" as="geometry" />
        </mxCell>
        <mxCell id="t6vhpmNbI5Wrl3wtF_EN-8" value="&quot;Ingresa la cantidad de productos&quot;" style="ellipse;whiteSpace=wrap;html=1;" vertex="1" parent="1">
          <mxGeometry x="315" y="310" width="190" height="80" as="geometry" />
        </mxCell>
        <mxCell id="t6vhpmNbI5Wrl3wtF_EN-29" style="edgeStyle=orthogonalEdgeStyle;rounded=0;orthogonalLoop=1;jettySize=auto;html=1;exitX=0.5;exitY=1;exitDx=0;exitDy=0;entryX=0.5;entryY=1;entryDx=0;entryDy=0;" edge="1" parent="1" source="t6vhpmNbI5Wrl3wtF_EN-10" target="t6vhpmNbI5Wrl3wtF_EN-28">
          <mxGeometry relative="1" as="geometry" />
        </mxCell>
        <mxCell id="t6vhpmNbI5Wrl3wtF_EN-10" value="Cant" style="shape=parallelogram;perimeter=parallelogramPerimeter;whiteSpace=wrap;html=1;fixedSize=1;" vertex="1" parent="1">
          <mxGeometry x="350" y="420" width="120" height="30" as="geometry" />
        </mxCell>
        <mxCell id="t6vhpmNbI5Wrl3wtF_EN-15" style="edgeStyle=orthogonalEdgeStyle;rounded=0;orthogonalLoop=1;jettySize=auto;html=1;entryX=0.5;entryY=0;entryDx=0;entryDy=0;" edge="1" parent="1" source="t6vhpmNbI5Wrl3wtF_EN-17" target="t6vhpmNbI5Wrl3wtF_EN-31">
          <mxGeometry relative="1" as="geometry">
            <mxPoint x="540" y="670" as="targetPoint" />
          </mxGeometry>
        </mxCell>
        <mxCell id="t6vhpmNbI5Wrl3wtF_EN-16" style="edgeStyle=orthogonalEdgeStyle;rounded=0;orthogonalLoop=1;jettySize=auto;html=1;exitX=0.5;exitY=1;exitDx=0;exitDy=0;entryX=0.5;entryY=0;entryDx=0;entryDy=0;" edge="1" parent="1" source="t6vhpmNbI5Wrl3wtF_EN-17" target="t6vhpmNbI5Wrl3wtF_EN-24">
          <mxGeometry relative="1" as="geometry" />
        </mxCell>
        <mxCell id="t6vhpmNbI5Wrl3wtF_EN-17" value="tp&amp;gt;1500" style="rhombus;whiteSpace=wrap;html=1;" vertex="1" parent="1">
          <mxGeometry x="370" y="560" width="80" height="80" as="geometry" />
        </mxCell>
        <mxCell id="t6vhpmNbI5Wrl3wtF_EN-21" value="Si" style="text;html=1;align=center;verticalAlign=middle;resizable=0;points=[];autosize=1;" vertex="1" parent="1">
          <mxGeometry x="365" y="640" width="30" height="20" as="geometry" />
        </mxCell>
        <mxCell id="t6vhpmNbI5Wrl3wtF_EN-22" value="No" style="text;html=1;align=center;verticalAlign=middle;resizable=0;points=[];autosize=1;" vertex="1" parent="1">
          <mxGeometry x="475" y="580" width="30" height="20" as="geometry" />
        </mxCell>
        <mxCell id="t6vhpmNbI5Wrl3wtF_EN-32" style="edgeStyle=orthogonalEdgeStyle;rounded=0;orthogonalLoop=1;jettySize=auto;html=1;entryX=0;entryY=0.5;entryDx=0;entryDy=0;" edge="1" parent="1" source="t6vhpmNbI5Wrl3wtF_EN-24" target="t6vhpmNbI5Wrl3wtF_EN-31">
          <mxGeometry relative="1" as="geometry" />
        </mxCell>
        <mxCell id="t6vhpmNbI5Wrl3wtF_EN-24" value="tp=tp-(tp*(8.5/100))" style="whiteSpace=wrap;html=1;" vertex="1" parent="1">
          <mxGeometry x="290" y="670" width="120" height="60" as="geometry" />
        </mxCell>
        <mxCell id="t6vhpmNbI5Wrl3wtF_EN-25" value="Fin" style="ellipse;whiteSpace=wrap;html=1;aspect=fixed;" vertex="1" parent="1">
          <mxGeometry x="525" y="780" width="80" height="80" as="geometry" />
        </mxCell>
        <mxCell id="t6vhpmNbI5Wrl3wtF_EN-30" style="edgeStyle=orthogonalEdgeStyle;rounded=0;orthogonalLoop=1;jettySize=auto;html=1;" edge="1" parent="1" source="t6vhpmNbI5Wrl3wtF_EN-28" target="t6vhpmNbI5Wrl3wtF_EN-17">
          <mxGeometry relative="1" as="geometry" />
        </mxCell>
        <mxCell id="t6vhpmNbI5Wrl3wtF_EN-28" value="tp=Cant*3" style="rounded=0;whiteSpace=wrap;html=1;direction=west;" vertex="1" parent="1">
          <mxGeometry x="350" y="480" width="120" height="50" as="geometry" />
        </mxCell>
        <mxCell id="t6vhpmNbI5Wrl3wtF_EN-33" style="edgeStyle=orthogonalEdgeStyle;rounded=0;orthogonalLoop=1;jettySize=auto;html=1;entryX=0.5;entryY=0;entryDx=0;entryDy=0;" edge="1" parent="1" source="t6vhpmNbI5Wrl3wtF_EN-31" target="t6vhpmNbI5Wrl3wtF_EN-25">
          <mxGeometry relative="1" as="geometry" />
        </mxCell>
        <mxCell id="t6vhpmNbI5Wrl3wtF_EN-31" value="&quot;Aqui esta tu resultado&quot;+tp" style="ellipse;whiteSpace=wrap;html=1;" vertex="1" parent="1">
          <mxGeometry x="505" y="660" width="120" height="80" as="geometry" />
        </mxCell>
      </root>
    </mxGraphModel>
  </diagram>
</mxfile>
